PathFileType	4	(X/Y/Z)	C:\Users\WrightLab\Desktop\Jo\P5V211.trc
DataRate	CameraRate	NumFrames	NumMarkers	Units	OrigDataRate	OrigDataStartFrame	OrigNumFrames
100.00	100.00	       21	19	mm	100.00	566	       754
Frame#	Time	Headset_Front			Headset_Back			Headset_Left			Headset_Right			Left_Shoulder			Right_Shoulder			Sternum			C7			Left Elbow			Right Elbow			Left Wrist			Right Wrist			Left ASIS			Right ASIS			S2			Left Knee			Right Knee			Left Ankle			Right Ankle			
		X1	Y1	Z1	X2	Y2	Z2	X3	Y3	Z3	X4	Y4	Z4	X5	Y5	Z5	X6	Y6	Z6	X7	Y7	Z7	X8	Y8	Z8	X9	Y9	Z9	X10	Y10	Z10	X11	Y11	Z11	X12	Y12	Z12	X13	Y13	Z13	X14	Y14	Z14	X15	Y15	Z15	X16	Y16	Z16	X17	Y17	Z17	X18	Y18	Z18	X19	Y19	Z19	

566	5.650	96.83585	1442.83008	-81.78063							-7.69621	1541.57324	-35.62354	27.95504	1512.80701	-422.87729	-145.36620	1448.93628	-67.23634	-15.75651	1312.54114	-216.59308	-184.45264	1539.35754	-288.89261	66.81480	1217.46350	-490.01694	-113.13107	1201.18127	60.91856	110.55309	976.84167	-414.71198	91.33273	1077.69910	131.50323	55.00461	934.99554	-329.68811	-108.04593	944.64801	-104.72063	-219.04486	994.09503	-402.52094	55.12828	500.44290	-379.09229	-233.18144	497.25095	-98.42267	-40.98980	86.57026	-379.61896	-322.95752	104.42201	-195.49124	
567	5.660	97.30825	1443.18445	-82.05632							-7.66832	1541.74060	-35.99675	28.90275	1512.78271	-423.71326	-145.36296	1449.13110	-68.09720	-15.03222	1312.59094	-217.91479	-183.57047	1539.69470	-289.76459	67.82307	1217.50964	-489.71301	-113.71072	1201.18799	60.06999	110.76443	976.53387	-414.63474	90.49699	1077.72205	131.10968	55.48231	934.96179	-329.74084	-107.88191	944.45337	-105.58881	-218.17825	994.03735	-403.38086	55.98127	500.66498	-379.03369	-233.12161	497.89334	-98.50469	-40.98593	86.57174	-379.61859	-322.88324	104.60873	-195.62392	
568	5.670	97.26650	1443.42395	-82.28891							-8.08193	1542.03223	-36.88114	29.95512	1512.34912	-424.03940	-145.30655	1448.99670	-69.44989	-14.70638	1312.47839	-218.26666	-182.68132	1539.58032	-291.13788	68.46857	1217.25415	-490.52838	-114.89314	1201.16211	59.28619	111.89923	976.22717	-414.37216	89.54495	1077.87366	130.60936	55.99973	934.86542	-329.89072	-107.81900	944.72034	-106.42049	-217.34392	993.87616	-404.03714	56.61497	500.73163	-379.08746	-233.36375	498.20261	-99.35575	-40.96585	86.58995	-379.61176	-322.83786	104.71519	-195.56418	
569	5.680	97.49706	1443.34485	-83.27367							-7.91640	1542.12976	-37.59254	30.76135	1512.34131	-424.35822	-145.53972	1449.26746	-70.59794	-14.12846	1312.84631	-218.86099	-181.88222	1539.89185	-292.34818	71.04948	1217.47302	-493.74329	-115.61925	1201.60400	58.01762	113.37865	976.36383	-414.82361	89.02306	1077.88660	130.08339	56.46474	934.65692	-330.29248	-107.76953	944.80756	-107.00430	-216.41753	994.31879	-405.54160	57.67810	500.71411	-379.42145	-233.53024	498.51678	-100.17513	-40.94659	86.60183	-379.60782	-322.59384	104.91398	-195.94342	
570	5.690	97.34112	1443.54443	-82.98621							-8.09443	1542.15552	-38.17312	31.96251	1512.18945	-425.80688	-145.43396	1449.55676	-71.49809	-13.51798	1312.80884	-219.18402	-181.43367	1539.92053	-293.87714	71.61313	1217.37061	-493.57916	-115.69563	1201.54504	57.27616	113.82863	976.32220	-414.86032	88.48399	1078.07031	129.43639	57.13583	934.70129	-330.69489	-107.83440	945.18646	-107.54417	-215.71211	994.19928	-406.56573	59.13444	500.51538	-379.01410	-233.34949	497.90536	-101.42264	-40.93576	86.60016	-379.60953	-322.41058	105.18526	-195.91982	
571	5.700	97.62693	1444.04883	-84.25917							-7.96537	1542.30896	-39.36464	32.94146	1512.11182	-426.46295	-145.48271	1449.56067	-72.81654	-13.46601	1312.30676	-219.91673	-180.95580	1539.88428	-295.63181	72.65553	1216.44788	-493.54910	-116.67963	1201.79150	55.79456	114.52502	976.09198	-415.21420	86.50315	1078.60132	129.26382	57.51653	934.44226	-331.06830	-108.39799	945.59009	-108.04207	-214.90669	994.21863	-407.93414	59.62028	500.47369	-379.03232	-233.16882	498.32727	-102.03362	-40.92652	86.59342	-379.61346	-322.35135	105.69460	-196.17599	
572	5.710	97.28870	1443.66687	-84.83397							-8.18067	1542.65930	-40.21908	33.75197	1512.07800	-426.79413	-146.04070	1449.75830	-73.88153	-13.29792	1312.26904	-221.06036	-180.20029	1539.86584	-296.81067	73.58555	1216.15845	-493.67816	-116.95390	1201.85657	54.36910	114.89556	975.87683	-415.69183	85.73314	1078.62830	128.48064	58.14669	934.37335	-331.35901	-108.57001	945.85632	-108.58458	-213.88184	994.11670	-408.18597	60.28502	500.31650	-379.45087	-233.20528	498.46973	-102.55822	-40.89614	86.60858	-379.60892	-322.29877	105.77372	-196.15016	
573	5.720	97.15647	1443.63428	-85.23190							-7.99944	1542.58447	-41.14923	35.42234	1511.96753	-427.50015	-146.16534	1449.50049	-75.32030	-12.91930	1312.48779	-221.83752	-179.47369	1539.82068	-297.68524	74.59062	1216.10864	-493.80804	-117.62930	1202.09338	53.45727	115.27119	975.73883	-415.80243	85.49010	1078.45020	127.68198	58.68561	934.25220	-331.77036	-108.54797	945.48248	-110.31883	-213.29277	994.33435	-410.19168	60.98324	500.47037	-379.54361	-233.26158	498.71194	-103.05517	-41.04778	86.59679	-379.46042	-322.26642	105.82137	-196.11888	
574	5.730	97.26421	1443.53345	-85.33266							-8.15388	1542.49243	-42.11670	36.68714	1511.73413	-428.83969	-147.05234	1449.66260	-78.27850	-12.29915	1312.25818	-222.75243	-178.66647	1539.96167	-299.66977	75.72353	1215.94165	-493.55414	-118.74986	1202.54724	52.37233	115.91644	975.82806	-415.64346	84.52242	1078.43127	126.71957	59.11239	934.30499	-331.98376	-109.19943	945.58002	-110.82757	-212.56958	994.14435	-411.16559	62.04499	500.60132	-379.76682	-233.41061	498.55817	-103.46132	-40.84922	86.62044	-379.60736	-322.26526	105.88179	-196.10934	
575	5.740	97.33167	1443.76648	-86.24953							-8.42263	1542.73804	-43.04981	37.71124	1511.62720	-429.67859	-147.15099	1450.02356	-79.84756	-12.10297	1312.40576	-223.63748	-177.93536	1540.23877	-301.26785	76.66331	1215.63379	-493.33185	-119.62202	1202.70618	51.10930	116.72554	975.84955	-415.96158	83.23388	1079.25781	125.74059	59.69886	934.20770	-333.02753	-109.49698	945.88495	-111.80128	-211.79865	994.22583	-412.36502	62.80481	500.73206	-379.93616	-233.17552	498.64761	-104.44756	-40.82906	86.61398	-379.61209	-322.22824	105.92236	-196.07892	
576	5.750	97.30515	1443.80151	-87.15482							-8.50943	1543.00928	-44.57003	38.87813	1511.74976	-431.08035	-147.94533	1450.28601	-82.08781	-11.86906	1312.40393	-224.10373	-177.48006	1540.60474	-303.32950	77.53876	1215.69739	-494.32596	-120.39341	1203.13562	49.46818	118.29446	975.32312	-415.69836	82.67793	1079.51611	125.10030	60.14529	934.24860	-333.63086	-109.79317	945.94336	-112.33427	-211.24847	994.17041	-414.14252	63.88566	500.81461	-379.15384	-232.99385	498.86292	-105.56192	-40.80255	86.62024	-379.61142	-322.19431	106.69572	-196.38347	
577	5.760	97.80958	1443.68347	-87.82944							-8.83395	1542.86804	-45.24858	39.74357	1511.42310	-432.01141	-148.40895	1450.07397	-83.88374	-11.41484	1312.70947	-225.82442	-176.70634	1540.56494	-304.79980	78.70993	1215.26135	-495.43411	-121.30202	1203.62109	48.59866	118.61629	975.13538	-415.76364	81.18796	1079.56177	124.32018	60.36220	934.29602	-333.86459	-111.40025	945.81055	-114.80949	-210.47118	994.06433	-414.89102	64.99528	500.71448	-379.52420	-232.91386	499.34534	-106.66586	-40.76842	86.60873	-379.61969	-322.19595	106.76173	-196.36012	
578	5.770	97.60566	1443.86279	-89.02310							-8.99100	1542.99646	-46.59801	40.70756	1511.10779	-432.25912	-145.75121	1452.44934	-80.82643	-11.38710	1312.79797	-226.49115	-175.52069	1540.22888	-306.07690	80.05765	1215.28601	-496.42358	-121.81691	1203.66626	47.33710	119.48598	974.60193	-415.98727	80.51802	1079.57593	123.42590	60.94264	934.13116	-334.27173	-110.71703	946.59668	-114.99469	-209.94344	994.15503	-417.02289	65.66793	500.64157	-379.19122	-232.77675	499.30014	-107.26523	-40.72070	86.59433	-379.63049	-322.16220	106.81986	-196.31474	
579	5.780	97.19672	1443.73779	-89.80605							-8.98139	1543.31641	-47.81385	42.43369	1511.13806	-434.32263	-148.31352	1450.87976	-87.52473	-11.40619	1312.27051	-227.71036	-175.09650	1540.48877	-309.09409	81.26155	1214.58850	-496.43268	-122.64435	1204.00830	46.02869	120.15987	974.30823	-416.66840	79.14521	1080.16724	122.77792	61.30955	933.87775	-334.41623	-111.12138	946.61285	-115.66930	-209.19409	994.13324	-418.26620	66.51090	500.61578	-378.83078	-233.74792	499.66376	-108.81828	-40.67509	86.56765	-379.64688	-322.02908	106.94538	-196.40099	
580	5.790	97.20910	1443.58337	-90.64758							-9.30134	1543.62048	-49.27470	43.17153	1510.85620	-434.74252	-145.53740	1453.26038	-84.01920	-11.10865	1312.42639	-228.91302	-174.47083	1540.33105	-310.72449	82.37492	1214.62610	-497.04562	-123.34225	1204.36890	44.07049	120.41565	974.03082	-416.56021	78.00698	1080.35986	121.98732	61.52930	933.84070	-334.45908	-111.53798	946.84888	-116.79510	-208.63689	993.83472	-419.84995	67.08807	500.26727	-379.04834	-233.63475	500.03946	-109.33897	-40.44334	86.54700	-379.75995	-321.79446	107.40472	-196.27655	
581	5.800	97.25514	1444.32385	-91.46482							-9.53195	1543.57959	-50.71161	44.53965	1510.64014	-436.02084	-147.99005	1451.31750	-91.59186	-10.33056	1312.66907	-230.39201	-174.21188	1540.49695	-312.03333	83.35571	1214.62646	-497.91525	-124.60363	1205.02771	42.41312	121.41502	974.19678	-417.93884	76.88368	1080.56873	120.97982	61.71549	933.44995	-334.63535	-113.30708	946.70679	-119.48013	-207.92166	994.01477	-421.28665	67.81157	500.40680	-378.88614	-233.81236	500.48071	-109.99659	-39.89063	86.19543	-379.97153	-321.79657	107.52588	-195.87666	
582	5.810	97.26305	1444.43066	-92.55805							-9.78367	1543.92065	-52.45561	45.50930	1510.12927	-436.69672	-146.08015	1452.66345	-87.09179	-9.99330	1312.91296	-231.07324	-172.19118	1539.93970	-314.25372	85.13253	1213.68567	-499.13455	-125.50907	1205.31897	41.10579	122.13431	974.01697	-417.91541	75.99388	1080.85498	120.10471	62.14911	932.62573	-335.26709	-114.12115	947.30756	-120.49461	-207.30518	994.06390	-422.90552	68.70135	500.32535	-378.16388	-234.76114	500.89777	-113.12117	-39.74057	86.03846	-380.09732	-321.75110	107.76289	-195.99997	
583	5.820	96.82307	1444.42517	-93.67221							-10.08978	1544.04260	-53.55276	46.26999	1509.86951	-438.13919	-149.00597	1451.00720	-95.34949	-9.87623	1313.40576	-233.07141	-171.52570	1540.15845	-316.80981	86.06728	1213.16882	-499.30786	-126.05193	1205.62488	39.17512	122.68166	973.35138	-418.18463	74.62034	1081.09167	118.93141	62.42942	932.40814	-336.11624	-114.35184	947.63318	-121.41834	-206.63585	993.96887	-423.83963	69.30337	500.20148	-377.92426	-235.40901	500.54257	-114.49852	-39.48971	86.17913	-380.18430	-321.77246	107.86482	-195.94756	
584	5.830	96.81040	1444.60803	-95.37711							-9.92773	1544.34375	-55.36490	47.45497	1509.69153	-439.56473	-145.89340	1454.60254	-92.34525	-10.08412	1312.87939	-234.53770	-170.73238	1540.14380	-318.30667	86.95071	1213.37390	-500.76852	-126.50889	1206.01660	37.84181	123.26810	973.70807	-418.37442	73.71858	1081.44678	117.85203	62.56608	932.36505	-336.15308	-114.81972	947.79413	-122.72504	-206.28166	993.94482	-426.18765	70.15545	499.96259	-377.54431	-236.07654	501.53827	-115.48228	-39.24169	86.01334	-380.13702	-321.78909	107.98682	-195.88608	
585	5.840	96.70776	1444.68469	-96.00768							-10.34817	1544.61328	-56.91066	48.46414	1509.40137	-440.81067	-145.59216	1455.67432	-94.06381	-9.84748	1312.65173	-235.49910	-170.37582	1540.41956	-320.50848	88.24055	1213.44287	-500.37027	-127.76608	1206.79309	35.84461	124.83295	973.16254	-418.79752	72.87411	1082.13416	116.70119	62.90754	932.57233	-336.78900	-115.90819	947.80206	-124.40833	-205.64546	994.43195	-427.99496	70.67980	499.97156	-377.46777	-236.52939	502.02750	-116.85623	-39.18322	85.99759	-380.14938	-321.85007	108.12254	-195.84401	
586	5.850	97.02232	1445.13684	-97.44305							-10.48562	1544.88354	-58.44642	49.24209	1508.78735	-442.02585	-148.36290	1453.78296	-100.23515	-9.27806	1313.03296	-237.13347	-169.57761	1540.45703	-322.91037	89.50727	1212.44031	-502.71515	-128.27113	1207.29932	34.09083	125.20589	973.21759	-419.44333	71.74664	1082.57935	115.51659	63.05546	932.30890	-336.99692	-116.28853	948.77411	-125.33020	-205.19330	993.97443	-428.81268	71.41378	500.11221	-377.02463	-237.08931	501.83847	-117.76076	-39.13686	85.97510	-380.16388	-322.00659	108.48073	-195.97656	
